<svg xmlns="http://www.w3.org/2000/svg" width="1360" height="660" viewBox="0 0 1360 660" font-family="Helvetica Neue, Helvetica, Arial, sans-serif">
<defs><marker id="ar" markerWidth="9" markerHeight="9" refX="8" refY="4.5" orient="auto" markerUnits="userSpaceOnUse"><path d="M0,0.6 L8.4,4.5 L0,8.4 z" fill="#8A9199"/></marker></defs>
<rect width="1360" height="660" fill="#FFFFFF"/>
<line x1="105" y1="104" x2="105" y2="606" stroke="#CDD3D9" stroke-width="1.4" stroke-dasharray="5 5"/>
<line x1="330" y1="104" x2="330" y2="606" stroke="#CDD3D9" stroke-width="1.4" stroke-dasharray="5 5"/>
<line x1="555" y1="104" x2="555" y2="606" stroke="#CDD3D9" stroke-width="1.4" stroke-dasharray="5 5"/>
<line x1="800" y1="104" x2="800" y2="606" stroke="#CDD3D9" stroke-width="1.4" stroke-dasharray="5 5"/>
<line x1="1045" y1="104" x2="1045" y2="606" stroke="#CDD3D9" stroke-width="1.4" stroke-dasharray="5 5"/>
<line x1="1270" y1="104" x2="1270" y2="606" stroke="#CDD3D9" stroke-width="1.4" stroke-dasharray="5 5"/>
<line x1="111" y1="182" x2="324" y2="182" stroke="#8A9199" stroke-width="1.5" marker-end="url(#ar)"/>
<rect x="192.7" y="160.0" width="49.6" height="17" rx="3" fill="#FFFFFF"/>
<text x="217.5" y="173.0" text-anchor="middle" font-size="11.5" fill="#4E565E">Query</text>
<line x1="336" y1="298" x2="549" y2="298" stroke="#8A9199" stroke-width="1.5" marker-end="url(#ar)"/>
<rect x="367.8" y="276.0" width="149.5" height="17" rx="3" fill="#FFFFFF"/>
<text x="442.5" y="289.0" text-anchor="middle" font-size="11.5" fill="#4E565E">Pre-processed query</text>
<line x1="561" y1="344" x2="794" y2="344" stroke="#8A9199" stroke-width="1.5" marker-end="url(#ar)"/>
<rect x="613.5" y="322.0" width="128.1" height="17" rx="3" fill="#FFFFFF"/>
<text x="677.5" y="335.0" text-anchor="middle" font-size="11.5" fill="#4E565E">Retrieve content</text>
<line x1="794" y1="390" x2="561" y2="390" stroke="#8A9199" stroke-width="1.5" stroke-dasharray="6 4" marker-end="url(#ar)"/>
<rect x="645.5" y="368.0" width="63.9" height="17" rx="3" fill="#FFFFFF"/>
<text x="677.5" y="381.0" text-anchor="middle" font-size="11.5" fill="#4E565E">Content</text>
<line x1="561" y1="436" x2="1039" y2="436" stroke="#8A9199" stroke-width="1.5" marker-end="url(#ar)"/>
<rect x="768.0" y="414.0" width="63.9" height="17" rx="3" fill="#FFFFFF"/>
<text x="800.0" y="427.0" text-anchor="middle" font-size="11.5" fill="#4E565E">Content</text>
<line x1="1051" y1="482" x2="1264" y2="482" stroke="#8A9199" stroke-width="1.5" marker-end="url(#ar)"/>
<rect x="1055.0" y="460.0" width="205.0" height="17" rx="3" fill="#FFFFFF"/>
<text x="1157.5" y="473.0" text-anchor="middle" font-size="11.0" fill="#4E565E">Arranged and refined content</text>
<line x1="336" y1="528" x2="1264" y2="528" stroke="#8A9199" stroke-width="1.5" marker-end="url(#ar)"/>
<rect x="725.3" y="506.0" width="149.5" height="17" rx="3" fill="#FFFFFF"/>
<text x="800.0" y="519.0" text-anchor="middle" font-size="11.5" fill="#4E565E">Pre-processed query</text>
<line x1="1264" y1="574" x2="111" y2="574" stroke="#8A9199" stroke-width="1.5" marker-end="url(#ar)"/>
<rect x="623.5" y="552.0" width="128.1" height="17" rx="3" fill="#FFFFFF"/>
<text x="687.5" y="565.0" text-anchor="middle" font-size="11.5" fill="#4E565E">Generated answer</text>
<path d="M336,216 L384,216 L384,250 L340,250" fill="none" stroke="#8A9199" stroke-width="1.5" marker-end="url(#ar)"/>
<text x="396" y="237" font-size="11.5" fill="#4E565E">Process query</text>
<rect x="47.0" y="46" width="116" height="58" rx="8" fill="#FBEEE2" stroke="#B0703A" stroke-width="1.7"/>
<text x="105" y="67" text-anchor="middle" font-size="9" letter-spacing="1.1" fill="#B0703A">ACTOR</text>
<text x="105" y="88" text-anchor="middle" font-size="14.5" font-weight="600" fill="#6B4320">User</text>
<rect x="260.0" y="46" width="140" height="58" rx="8" fill="#E9EFF5" stroke="#3E5C76" stroke-width="1.7"/>
<text x="330" y="67" text-anchor="middle" font-size="9" letter-spacing="1.1" fill="#3E5C76">STAGE</text>
<text x="330" y="88" text-anchor="middle" font-size="14.5" font-weight="600" fill="#22374A">Processor</text>
<rect x="485.0" y="46" width="140" height="58" rx="8" fill="#E9EFF5" stroke="#3E5C76" stroke-width="1.7"/>
<text x="555" y="67" text-anchor="middle" font-size="9" letter-spacing="1.1" fill="#3E5C76">STAGE</text>
<text x="555" y="88" text-anchor="middle" font-size="14.5" font-weight="600" fill="#22374A">Retriever</text>
<rect x="711.0" y="46" width="178" height="58" rx="8" fill="#E6EFEA" stroke="#47795F" stroke-width="1.7"/>
<text x="800" y="67" text-anchor="middle" font-size="9" letter-spacing="1.1" fill="#47795F">SOURCE</text>
<text x="800" y="88" text-anchor="middle" font-size="14.5" font-weight="600" fill="#294A39">Graph Data Source</text>
<rect x="975.0" y="46" width="140" height="58" rx="8" fill="#E9EFF5" stroke="#3E5C76" stroke-width="1.7"/>
<text x="1045" y="67" text-anchor="middle" font-size="9" letter-spacing="1.1" fill="#3E5C76">STAGE</text>
<text x="1045" y="88" text-anchor="middle" font-size="14.5" font-weight="600" fill="#22374A">Organizer</text>
<rect x="1200.0" y="46" width="140" height="58" rx="8" fill="#E9EFF5" stroke="#3E5C76" stroke-width="1.7"/>
<text x="1270" y="67" text-anchor="middle" font-size="9" letter-spacing="1.1" fill="#3E5C76">STAGE</text>
<text x="1270" y="88" text-anchor="middle" font-size="14.5" font-weight="600" fill="#22374A">Generator</text>
<text x="46" y="640" font-size="12.5" font-style="italic" fill="#9AA0A8">The query reaches the generator twice: once retrieved and organised as content, and once as the processed query itself.</text>
</svg>